<?xml version="1.0" encoding="utf-8"?>
<!-- Generator: Adobe Illustrator 21.0.0, SVG Export Plug-In . SVG Version: 6.00 Build 0)  -->
<svg version="1.1" id="图层_1" xmlns="http://www.w3.org/2000/svg" xmlns:xlink="http://www.w3.org/1999/xlink" x="0px" y="0px"
	 viewBox="0 0 12 12" style="enable-background:new 0 0 12 12;" xml:space="preserve">
<style type="text/css">
	.st0{fill:#797984;}
</style>
<path class="st0" d="M11.9,5.6C11.9,5.6,11.9,5.6,11.9,5.6C11.9,5.6,11.9,5.6,11.9,5.6C11.9,5.6,11.9,5.6,11.9,5.6L11.9,5.6
	C11.9,5.6,11.9,5.6,11.9,5.6l-3-3c-0.2-0.2-0.5-0.2-0.7,0C8,2.7,8,2.9,8,3s0,0.3,0.1,0.4l2.1,2.1H0.5C0.2,5.5,0,5.7,0,6
	s0.2,0.5,0.5,0.5h9.8L8.1,8.6C8,8.8,8,9.2,8.1,9.4c0.1,0.1,0.2,0.1,0.4,0.1s0.3,0,0.4-0.1l3-3c0,0,0,0,0,0v0C11.9,6.2,12,6.2,12,6.1
	C12,6,12,6,12,6v0c0,0,0,0,0,0C12,5.9,11.9,5.7,11.9,5.6z"/>
</svg>
